<svg xmlns="http://www.w3.org/2000/svg" viewBox="0 0 512 512" role="img" aria-label="BEE icon">
  <defs>
    <linearGradient id="bg" x1="0" y1="0" x2="1" y2="1">
      <stop offset="0%" stop-color="#0c2470"/>
      <stop offset="100%" stop-color="#d76a2e"/>
    </linearGradient>
    <linearGradient id="bolt" x1="0" y1="0" x2="0" y2="1">
      <stop offset="0%" stop-color="#ffe65a"/>
      <stop offset="100%" stop-color="#ffca2e"/>
    </linearGradient>
  </defs>
  <rect x="8" y="8" width="496" height="496" rx="96" fill="url(#bg)"/>
  <g fill="none" stroke="#eaf4ff" stroke-width="6" stroke-linecap="round" stroke-linejoin="round" opacity="0.95">
    <path d="M150 164h56"/><path d="M140 188h42"/><path d="M150 212h56"/>
    <path d="M128 176h12"/><path d="M116 200h12"/><path d="M128 224h12"/>
    <path d="M362 164h-56"/><path d="M372 188h-42"/><path d="M362 212h-56"/>
    <path d="M384 176h-12"/><path d="M396 200h-12"/><path d="M384 224h-12"/>
  </g>
  <path d="M236 114h62l-34 72h40l-92 130 34-84h-34z" fill="url(#bolt)"/>
  <g fill="none" stroke="#f0f7ff" stroke-width="6">
    <path d="M336 162l36 36-36 36h-72l-36-36 36-36z"/>
    <circle cx="300" cy="198" r="14"/>
  </g>
  <text x="256" y="374" text-anchor="middle" font-family="Segoe UI, Arial, sans-serif" font-size="86" font-weight="800" fill="#eef7ff">BEE</text>
  <text x="256" y="426" text-anchor="middle" font-family="Segoe UI, Arial, sans-serif" font-size="36" font-weight="700" fill="#eef7ff">101</text>
</svg>
